<svg width="24" height="24" viewBox="0 0 24 24" fill="none" xmlns="http://www.w3.org/2000/svg">
<path d="M10.27 21C10.6269 21.6188 11.2863 22 12 22C12.7137 22 13.3732 21.6188 13.73 21" stroke="#666666" stroke-width="2" stroke-linecap="round" stroke-linejoin="round"/>
<path d="M3.17798 15.326C2.90851 15.6185 2.83872 16.041 3 16.4034C3.16128 16.7658 3.52325 16.9997 3.92305 17H20.0763C20.4761 17.0001 20.8383 16.7666 21 16.4045C21.1617 16.0424 21.0925 15.6199 20.8234 15.327C19.4807 13.956 18.0572 12.499 18.0572 8C18.0572 4.68629 15.3452 2 11.9997 2C8.65424 2 5.94221 4.68629 5.94221 8C5.94221 12.499 4.5177 13.956 3.17798 15.326Z" stroke="#666666" stroke-width="2" stroke-linecap="round" stroke-linejoin="round"/>
</svg>
