<svg width="20" height="20" viewBox="0 0 20 20" fill="none" xmlns="http://www.w3.org/2000/svg">
<path d="M16.6601 8.40574C16.6601 12.6097 12.0454 16.9879 10.4958 18.34C10.1992 18.5654 9.79093 18.5654 9.49437 18.34C7.94476 16.9879 3.33008 12.6097 3.33008 8.40574C3.33008 4.68572 6.3141 1.67004 9.99508 1.67004C13.6761 1.67004 16.6601 4.68572 16.6601 8.40574Z" stroke="#D4841A" stroke-width="2" stroke-linecap="round" stroke-linejoin="round"/>
<path d="M7.5 8.32996C7.5 6.94924 8.61929 5.82996 10 5.82996C11.3807 5.82996 12.5 6.94924 12.5 8.32996C12.5 9.71067 11.3807 10.83 10 10.83C8.61929 10.83 7.5 9.71067 7.5 8.32996Z" stroke="#D4841A" stroke-width="2" stroke-linecap="round" stroke-linejoin="round"/>
</svg>
